<svg width="38" height="34" viewBox="0 0 38 34" fill="none" xmlns="http://www.w3.org/2000/svg">
<path d="M36.8867 18.1133C37.5015 18.1133 38 17.6148 38 17C38 16.3852 37.5015 15.8867 36.8867 15.8867H31.3203V13.6602H34.6602C35.275 13.6602 35.7734 13.1617 35.7734 12.5469V6.78898C37.0692 6.32942 38 5.09197 38 3.64062C38 1.79904 36.5017 0.300781 34.6602 0.300781C32.8186 0.300781 31.3203 1.79904 31.3203 3.64062C31.3203 5.09197 32.2511 6.32942 33.5469 6.78898V11.4336H31.3203V8.09375C31.3203 7.47892 30.8219 6.98047 30.207 6.98047H7.79297C7.17814 6.98047 6.67969 7.47892 6.67969 8.09375V11.4336H4.45312V6.78898C5.74891 6.32942 6.67969 5.09197 6.67969 3.64062C6.67969 1.79904 5.18143 0.300781 3.33984 0.300781C1.49825 0.300781 0 1.79904 0 3.64062C0 5.09197 0.930777 6.32942 2.22656 6.78898V12.5469C2.22656 13.1617 2.72502 13.6602 3.33984 13.6602H6.67969V15.8867H1.11328C0.498453 15.8867 0 16.3852 0 17C0 17.6148 0.498453 18.1133 1.11328 18.1133H6.67969V20.3398H3.33984C2.72502 20.3398 2.22656 20.8383 2.22656 21.4531V27.211C0.930777 27.6706 0 28.908 0 30.3594C0 32.201 1.49825 33.6992 3.33984 33.6992C5.18143 33.6992 6.67969 32.201 6.67969 30.3594C6.67969 28.908 5.74891 27.6706 4.45312 27.211V22.5664H6.67969V25.9062C6.67969 26.5211 7.17814 27.0195 7.79297 27.0195H17.8867V29.2461H14.5469C13.932 29.2461 13.4336 29.7445 13.4336 30.3594C13.4336 30.9742 13.932 31.4727 14.5469 31.4727H23.4531C24.068 31.4727 24.5664 30.9742 24.5664 30.3594C24.5664 29.7445 24.068 29.2461 23.4531 29.2461H20.1133V27.0195H30.207C30.8219 27.0195 31.3203 26.5211 31.3203 25.9062V22.5664H33.5469V27.211C32.2511 27.6706 31.3203 28.908 31.3203 30.3594C31.3203 32.201 32.8186 33.6992 34.6602 33.6992C36.5017 33.6992 38 32.201 38 30.3594C38 28.908 37.0692 27.6706 35.7734 27.211V21.4531C35.7734 20.8383 35.275 20.3398 34.6602 20.3398H31.3203V18.1133H36.8867ZM34.6602 2.52734C35.274 2.52734 35.7734 3.02676 35.7734 3.64062C35.7734 4.25449 35.274 4.75391 34.6602 4.75391C34.0463 4.75391 33.5469 4.25449 33.5469 3.64062C33.5469 3.02676 34.0463 2.52734 34.6602 2.52734ZM3.33984 4.75391C2.72598 4.75391 2.22656 4.25449 2.22656 3.64062C2.22656 3.02676 2.72598 2.52734 3.33984 2.52734C3.95371 2.52734 4.45312 3.02676 4.45312 3.64062C4.45312 4.25449 3.95371 4.75391 3.33984 4.75391ZM3.33984 31.4727C2.72598 31.4727 2.22656 30.9732 2.22656 30.3594C2.22656 29.7455 2.72598 29.2461 3.33984 29.2461C3.95371 29.2461 4.45312 29.7455 4.45312 30.3594C4.45312 30.9732 3.95371 31.4727 3.33984 31.4727ZM29.0938 24.793H8.90625V9.20703H29.0938V24.793ZM34.6602 29.2461C35.274 29.2461 35.7734 29.7455 35.7734 30.3594C35.7734 30.9732 35.274 31.4727 34.6602 31.4727C34.0463 31.4727 33.5469 30.9732 33.5469 30.3594C33.5469 29.7455 34.0463 29.2461 34.6602 29.2461Z" fill="url(#paint0_linear)"/>
<defs>
<linearGradient id="paint0_linear" x1="19" y1="33.6992" x2="19" y2="0.300781" gradientUnits="userSpaceOnUse">
<stop stop-color="#D5EFF2"/>
<stop offset="1" stop-color="#A2E0E7"/>
</linearGradient>
</defs>
</svg>
