<svg width="1356" height="942" viewBox="0 0 1356 942" fill="none" xmlns="http://www.w3.org/2000/svg">
<path d="M200.686 124.397L227.455 131.569L207.859 151.165L200.686 124.397Z" fill="#ED33B9"/>
<path d="M633.851 162.244L635.463 182.098L617.464 173.567L633.851 162.244Z" fill="#FFF129"/>
<path d="M465.109 764.413L489.052 768.808L473.274 787.345L465.109 764.413Z" fill="#FFF129"/>
<path d="M1326.24 18.3053L1326.55 38.2215L1309.14 28.5306L1326.24 18.3053Z" fill="#51E5FF"/>
<path d="M881.657 881.324L882.132 911.984L855.342 897.065L881.657 881.324Z" fill="#51E5FF"/>
<path d="M721.137 546.896L733.475 579.303L699.241 573.785L721.137 546.896Z" fill="#ED33B9"/>
<path d="M50.5694 694.889L29.1444 727.682L11.4576 692.731L50.5694 694.889Z" fill="#ED33B9"/>
<path d="M1001.54 116.55L973.346 159.696L950.075 113.71L1001.54 116.55Z" fill="#23CE6B"/>
<path d="M566.057 795.531L606.864 794.085L587.713 830.148L566.057 795.531Z" fill="#23CE6B"/>
<path d="M884.709 236.196L909.31 249.41L885.566 264.108L884.709 236.196Z" fill="#ED33B9"/>
<path d="M283.395 852.934L250.789 894.229L231.329 845.344L283.395 852.934Z" fill="#51E5FF"/>
<path d="M1068.9 339.752L1025.48 352.033L1036.56 308.29L1068.9 339.752Z" fill="#FFF129"/>
<path d="M1312.76 673.467L1283.29 682.06L1290.58 652.236L1312.76 673.467Z" fill="#FFF129"/>
<path d="M329.262 6.52894L336.1 40.9893L302.837 29.6808L329.262 6.52894Z" fill="#FFF129"/>
<path d="M38.2687 92.0173L34.1694 113.693L17.447 99.3053L38.2687 92.0173Z" fill="#23CE6B"/>
<path d="M744.249 311.777L778.522 316.487L757.306 343.813L744.249 311.777Z" fill="#51E5FF"/>
<path d="M1200.6 578.525L1217.76 614.546L1177.98 611.403L1200.6 578.525Z" fill="#51E5FF"/>
<path d="M1322.6 886.541L1350.52 921.63L1306.18 928.265L1322.6 886.541Z" fill="#23CE6B"/>
<circle cx="326.657" cy="240.368" r="10.6574" fill="#FFF129"/>
<circle cx="643.657" cy="498.657" r="7.65738" fill="#23CE6B"/>
<circle cx="1019.5" cy="841.21" r="13.5" fill="#ED33B9"/>
<circle cx="1336" cy="301.71" r="10" fill="#23CE6B"/>
<circle cx="119.5" cy="247.21" r="6.5" fill="#51E5FF"/>
<circle cx="1140" cy="51.7103" r="12" fill="#ED33B9"/>
<circle cx="688" cy="875.71" r="7" fill="#FFF129"/>
<circle cx="865.5" cy="636.21" r="5.5" fill="#FFF129"/>
<circle cx="195.5" cy="766.5" r="7.5" fill="#FFF129"/>
<circle cx="30" cy="389" r="10" fill="#ED33B9"/>
<path fill-rule="evenodd" clip-rule="evenodd" d="M459.093 152.795L475.887 136L482.185 142.298L465.391 159.093L459.093 152.795ZM453.844 193.732L470.639 176.937L452.795 159.093L459.093 152.795L483.235 176.937L476.937 183.235L460.142 200.03L453.844 193.732Z" fill="white"/>
<path fill-rule="evenodd" clip-rule="evenodd" d="M572.876 561.64L561 541.071L568.713 536.618L580.589 557.187L572.876 561.64ZM611.059 577.305L599.184 556.736L577.329 569.354L572.876 561.64L602.444 544.569L606.897 552.283L618.773 572.852L611.059 577.305Z" fill="white"/>
<path fill-rule="evenodd" clip-rule="evenodd" d="M1248.13 192.092L1241.98 215.034L1233.38 212.729L1239.52 189.787L1248.13 192.092ZM1232.2 154.016L1226.06 176.958L1250.43 183.489L1248.13 192.092L1215.15 183.256L1217.45 174.652L1223.6 151.71L1232.2 154.016Z" fill="white"/>
<path fill-rule="evenodd" clip-rule="evenodd" d="M874.838 43.9621L851.827 38.0783L854.033 29.4492L877.044 35.3329L874.838 43.9621ZM912.73 27.603L889.719 21.7193L883.467 46.1685L874.838 43.9621L883.296 10.8838L891.925 13.0902L914.936 18.9739L912.73 27.603Z" fill="white"/>
</svg>
